<svg width="530" height="292" viewBox="0 0 530 292" fill="none" xmlns="http://www.w3.org/2000/svg">
<g filter="url(#filter0_d_6_373)">
<rect x="4.82977" width="521.17" height="284" rx="8" fill="white"/>
<g opacity="0.5">
<path opacity="0.1" d="M209.674 259.185C225.871 259.185 239.001 257.081 239.001 254.484C239.001 251.887 225.871 249.782 209.674 249.782C193.477 249.782 180.346 251.887 180.346 254.484C180.346 257.081 193.477 259.185 209.674 259.185Z" fill="#587EEC"/>
<path opacity="0.1" d="M369.093 259.317C389.304 259.317 405.689 257.213 405.689 254.616C405.689 252.019 389.304 249.915 369.093 249.915C348.881 249.915 332.497 252.019 332.497 254.616C332.497 257.213 348.881 259.317 369.093 259.317Z" fill="#587EEC"/>
<path opacity="0.1" d="M103.266 125.772H133.812V167.328H105.502C105.427 167.755 105.354 168.184 105.276 168.614H133.812V202.128C133.761 202.113 133.716 202.095 133.668 202.077C132.861 201.758 132.06 201.422 131.26 201.061L130.748 200.83C129.945 200.452 129.143 200.051 128.34 199.628C128.06 199.481 127.78 199.328 127.503 199.172C123.048 196.681 119 193.524 115.5 189.811C115.398 189.712 115.302 189.607 115.199 189.511C114.712 188.982 114.233 188.447 113.77 187.9L113.258 187.3C112.71 186.63 112.181 185.942 111.666 185.245C111.591 185.143 111.519 185.04 111.44 184.944C109.347 182.047 107.609 178.911 106.263 175.601C106.221 175.502 106.185 175.394 106.146 175.301C105.733 174.24 105.367 173.168 105.047 172.087C104.909 171.633 104.777 171.185 104.662 170.714C104.62 170.575 104.584 170.44 104.551 170.305C102.841 163.645 102.64 156.726 102.64 149.856C102.64 149.054 102.64 148.249 102.64 147.453C102.64 144.674 102.673 141.877 102.721 139.083C102.721 138.359 102.751 137.638 102.766 136.911C102.808 135.067 102.868 133.222 102.947 131.378C102.965 130.864 102.989 130.353 103.016 129.842C103.016 129.548 103.031 129.254 103.061 128.959C103.133 127.89 103.193 126.829 103.266 125.772Z" fill="#587EEC"/>
<path opacity="0.1" d="M133.812 79.5022H117.057C119.78 75.2471 122.756 71.1582 125.968 67.2573C128.458 64.2051 131.085 61.2311 133.812 58.3651V79.5022Z" fill="#587EEC"/>
<path opacity="0.1" d="M133.812 80.788V124.486H103.362C103.362 124.36 103.383 124.231 103.392 124.105C103.419 123.759 103.446 123.414 103.476 123.071C103.509 122.669 103.546 122.263 103.585 121.869C103.624 121.476 103.666 120.995 103.711 120.56C103.756 120.124 103.798 119.682 103.85 119.247C103.901 118.811 103.946 118.376 104 117.943C104.054 117.51 104.102 117.072 104.16 116.639C104.205 116.279 104.253 115.921 104.301 115.561C104.37 115.053 104.443 114.542 104.521 114.038C104.521 113.963 104.542 113.884 104.554 113.812C105.103 110.118 105.852 106.455 106.796 102.841C107.785 99.05 109.047 95.3352 110.573 91.726C112.196 87.9503 114.095 84.2994 116.256 80.803L133.812 80.788Z" fill="#587EEC"/>
<path opacity="0.1" d="M141.105 125.769V167.328H206.348V125.769H141.105ZM141.105 168.611V204.3C141.478 204.378 141.848 204.453 142.215 204.516C142.715 204.612 143.212 204.7 143.72 204.775C143.816 204.79 143.916 204.805 144.021 204.814C144.22 204.847 144.424 204.874 144.623 204.901C145.126 204.97 145.625 205.027 146.128 205.072C146.366 205.096 146.607 205.117 146.847 205.135L147.428 205.18C147.744 205.204 148.057 205.222 148.367 205.231C148.56 205.231 148.753 205.249 148.951 205.255C149.102 205.255 149.252 205.255 149.409 205.255C149.565 205.255 149.788 205.255 149.978 205.255C150.236 205.255 150.495 205.255 150.751 205.255H151.097C151.356 205.255 151.615 205.255 151.871 205.231H151.889C152.066 205.231 152.247 205.231 152.427 205.207C152.478 205.21 152.528 205.21 152.578 205.207C152.728 205.207 152.879 205.207 153.023 205.186H153.129L154.137 205.108C154.468 205.078 154.802 205.039 155.139 205.003L155.826 204.922C158.617 204.531 161.378 203.945 164.087 203.167C170.173 201.473 176.127 199.103 182.209 197.366C190.074 195.128 198.763 194.029 206.363 196.766V168.611H141.105ZM206.348 79.5023V24.1752C199.205 24.098 192.081 24.9318 185.15 26.6566C168.629 30.7993 153.806 39.7847 141.105 51.2605V79.4993H144.379V80.7821H141.105V124.486H206.348V80.7851H157.824V79.5023H206.348ZM290.149 60.8136C286.062 60.6694 281.999 59.3776 278.324 57.3829C271.296 53.5676 265.683 47.6765 259.41 42.7047C246.378 32.3494 230.215 26.1009 213.634 24.5507V79.5023H306.772L307.004 79.259L290.149 60.8136ZM298.634 59.3115L307.63 69.1651V56.728C304.617 57.1005 301.978 57.9867 298.646 59.2995L298.634 59.3115ZM307.63 213.162V168.611H288.461C288.41 168.422 288.358 168.229 288.298 168.037C288.355 168.229 288.403 168.422 288.458 168.611H213.646V200.83C214.357 201.356 215.058 201.909 215.753 202.47C216.503 203.071 217.243 203.705 217.987 204.327L218.736 204.946C219.094 205.246 219.455 205.547 219.82 205.829C220.542 206.414 221.271 206.991 222.008 207.559C222.372 207.86 222.745 208.13 223.115 208.413C228.992 212.898 235.192 216.945 241.665 220.522C243.115 221.323 244.579 222.105 246.056 222.869C247.04 223.37 248.03 223.869 249.023 224.353C250.516 225.08 252.021 225.781 253.538 226.455C267.524 232.722 282.312 237.021 297.481 239.232C300.85 239.729 304.232 240.119 307.627 240.404V213.159H307.928L307.63 213.162ZM213.646 80.7851V124.486H307.642V80.7851H213.646ZM213.646 125.769V167.328H307.642V125.769H213.646ZM314.938 56.6739V70.547L326.42 57.9717C322.616 57.3589 318.788 56.9213 314.938 56.6589V56.6739ZM314.938 125.784V167.328H406.36V125.769L314.938 125.784ZM406.026 216.461L406.348 168.611H314.938V240.881C320.826 241.128 326.724 241.058 332.605 240.671H332.708C335.517 240.495 338.313 240.238 341.096 239.902H341.159C356.006 238.177 370.524 234.311 384.259 228.423L406.026 216.461ZM423.988 132.612C423.645 131.804 423.287 131.002 422.923 130.209C422.243 128.707 421.523 127.247 420.783 125.787H413.65V167.328H431.684C431.675 155.564 428.693 143.547 423.997 132.597L423.988 132.612ZM413.65 168.626V209.783C418.73 204.922 423.022 199.361 426.113 193.004C429.83 185.35 431.531 177.062 431.669 168.62L413.65 168.626ZM413.65 113.674V124.489H420.115C418.159 120.766 416.004 117.151 413.659 113.659L413.65 113.674ZM351.648 64.8271C351.173 64.6469 350.697 64.4636 350.218 64.2864C345.171 62.426 340.014 60.8789 334.775 59.654L317.204 78.9015L316.867 79.259L317.093 79.5053H379.63C370.92 73.5212 361.53 68.5891 351.657 64.8121L351.648 64.8271ZM381.463 80.8001H316.22L314.938 81.9717V124.486H326.176H326.194H406.372V103.893C399.119 95.1376 390.748 87.3688 381.472 80.7851L381.463 80.8001Z" fill="#587EEC"/>
<path opacity="0.1" d="M133.812 102.829V124.486H103.362C103.362 124.36 103.383 124.231 103.392 124.105C103.419 123.759 103.446 123.414 103.476 123.071C103.509 122.669 103.546 122.263 103.585 121.87C103.624 121.476 103.666 120.995 103.711 120.56C103.756 120.124 103.798 119.683 103.85 119.247C103.901 118.811 103.946 118.376 104 117.943C104.054 117.511 104.102 117.072 104.16 116.639C104.205 116.279 104.253 115.921 104.301 115.561C104.37 115.053 104.443 114.542 104.521 114.038C104.521 113.963 104.542 113.885 104.554 113.812C105.103 110.118 105.852 106.456 106.796 102.841L133.812 102.829Z" fill="#587EEC"/>
<path opacity="0.1" d="M103.266 125.772H133.812V167.328H105.502C105.427 167.755 105.354 168.184 105.276 168.614H133.812V202.128C133.761 202.113 133.716 202.095 133.668 202.077C132.861 201.758 132.06 201.422 131.26 201.061L130.748 200.83C129.945 200.452 129.143 200.051 128.34 199.628C128.06 199.481 127.78 199.328 127.503 199.172C123.048 196.681 119 193.524 115.5 189.811C115.398 189.712 115.302 189.607 115.199 189.511C114.712 188.982 114.233 188.447 113.77 187.9L113.258 187.3C112.71 186.63 112.181 185.942 111.666 185.245C111.591 185.143 111.519 185.04 111.44 184.944C109.347 182.047 107.609 178.911 106.263 175.601C106.221 175.502 106.185 175.394 106.146 175.301C105.733 174.24 105.367 173.168 105.047 172.087C104.909 171.633 104.777 171.185 104.662 170.714C104.62 170.575 104.584 170.44 104.551 170.305C102.841 163.645 102.64 156.726 102.64 149.856C102.64 149.054 102.64 148.249 102.64 147.453C102.64 144.674 102.673 141.877 102.721 139.083C102.721 138.359 102.751 137.638 102.766 136.911C102.808 135.067 102.868 133.222 102.947 131.378C102.965 130.864 102.989 130.353 103.016 129.842C103.016 129.548 103.031 129.254 103.061 128.959C103.133 127.89 103.193 126.829 103.266 125.772Z" fill="#587EEC"/>
<path opacity="0.1" d="M164.072 87.0426V124.486H141.105V87.0426H144.379V74.3651H157.821V87.0426H164.072Z" fill="#587EEC"/>
<path opacity="0.1" d="M164.072 125.769H141.108V167.325H164.072V125.769Z" fill="#587EEC"/>
<path opacity="0.1" d="M141.105 168.614H164.072V203.161C161.363 203.938 158.602 204.524 155.81 204.913L155.124 204.997C154.787 205.036 154.453 205.069 154.122 205.102C153.791 205.135 153.448 205.159 153.114 205.18H153.008C152.864 205.18 152.707 205.198 152.566 205.201H152.412C152.232 205.201 152.051 205.219 151.871 205.225C151.615 205.24 151.359 205.243 151.097 205.246C150.986 205.246 150.88 205.246 150.769 205.246C150.51 205.246 150.254 205.246 149.996 205.246H149.427C149.273 205.246 149.126 205.246 148.966 205.246L148.385 205.225C148.084 205.225 147.759 205.192 147.446 205.171L146.868 205.129L146.149 205.063C145.643 205.018 145.141 204.961 144.644 204.892L144.042 204.808L143.741 204.766C143.239 204.687 142.742 204.603 142.236 204.507C141.866 204.444 141.499 204.366 141.126 204.291L141.105 168.614Z" fill="#587EEC"/>
<path opacity="0.1" d="M307.642 82.6206H288.704V124.483H307.642V82.6206Z" fill="#587EEC"/>
<path opacity="0.1" d="M307.645 125.769V167.328H213.646V149.402H263.714V159.977H288.704V125.769H307.645Z" fill="#587EEC"/>
<path opacity="0.1" d="M307.943 213.171H307.642V240.434C304.251 240.147 300.87 239.758 297.499 239.265C282.323 237.047 267.528 232.738 253.538 226.461C249.499 224.647 245.542 222.666 241.668 220.519C235.195 216.94 228.995 212.893 223.115 208.41C221.638 207.28 220.181 206.124 218.742 204.943C217.746 204.123 216.756 203.282 215.753 202.464C215.058 201.903 214.357 201.35 213.646 200.821V168.614H288.455C288.403 168.422 288.352 168.229 288.298 168.04C288.355 168.229 288.41 168.422 288.461 168.614H307.642V213.153C307.744 213.156 307.844 213.165 307.943 213.171Z" fill="#587EEC"/>
<path opacity="0.1" d="M357.033 79.5021H344.692V75.6749H350.224V64.2742C350.704 64.4484 351.182 64.6277 351.657 64.8119V75.6749H357.033V79.5021Z" fill="#587EEC"/>
<path opacity="0.1" d="M386.763 124.486H326.182C326.182 124.486 326.182 124.486 326.203 124.501L326.176 124.486H314.938V82.6235H318.122V113.566H332.674V95.2409H344.695V80.788H357.036V95.2529H369.057V113.578H386.763V124.486Z" fill="#587EEC"/>
<path opacity="0.1" d="M314.938 125.769V167.328H386.763V125.769H314.938ZM406.261 216.247L406.36 183.352H386.763V168.632H314.938V240.881C320.826 241.128 326.724 241.058 332.605 240.671H332.708C335.517 240.495 338.313 240.238 341.096 239.902H341.159C356.006 238.177 370.524 234.311 384.259 228.423" fill="#587EEC"/>
<path opacity="0.1" d="M414.926 168.614H431.681C431.534 177.052 429.836 185.341 426.122 192.995C423.031 199.355 418.736 204.916 413.662 209.773V183.337H414.926V168.614Z" fill="#587EEC"/>
<path opacity="0.1" d="M431.69 167.328H414.926V132.597H423.997C428.692 143.547 431.675 155.564 431.69 167.328Z" fill="#587EEC"/>
<path opacity="0.1" d="M307.645 94.2585H297.499V107.384H307.645V94.2585Z" fill="#587EEC"/>
<path opacity="0.1" d="M307.645 121.464H297.499V124.486H307.645V121.464Z" fill="#587EEC"/>
<path opacity="0.1" d="M307.645 125.769H297.499V134.586H307.645V125.769Z" fill="#587EEC"/>
<path opacity="0.1" d="M307.645 148.669H297.499V161.794H307.645V148.669Z" fill="#587EEC"/>
<path opacity="0.1" d="M307.645 175.875H297.499V189H307.645V175.875Z" fill="#587EEC"/>
<path opacity="0.1" d="M307.642 213.153C307.744 213.153 307.844 213.153 307.943 213.171H307.642V216.22H297.499V203.08H307.642V213.153Z" fill="#587EEC"/>
<path opacity="0.1" d="M307.642 230.28V240.418C304.251 240.132 300.87 239.743 297.499 239.25V230.28H307.642Z" fill="#587EEC"/>
<path opacity="0.1" d="M257.129 166.364H213.646V167.328H257.129V166.364Z" fill="#587EEC"/>
<path opacity="0.1" d="M257.129 168.611H213.646V172.306H257.129V168.611Z" fill="#587EEC"/>
<path opacity="0.1" d="M257.129 184.419H213.646V190.361H257.129V184.419Z" fill="#587EEC"/>
<path opacity="0.1" d="M257.126 202.474V208.416H223.115C221.639 207.29 220.18 206.135 218.739 204.949C217.743 204.129 216.756 203.288 215.75 202.474H257.126Z" fill="#587EEC"/>
<path opacity="0.1" d="M257.126 220.525V226.461H253.535C249.5 224.645 245.544 222.663 241.668 220.516L257.126 220.525Z" fill="#587EEC"/>
<path opacity="0.1" d="M341.168 129.797H332.608V138.341H341.168V129.797Z" fill="#587EEC"/>
<path opacity="0.1" d="M155.832 89.9897H147.272V98.5335H155.832V89.9897Z" fill="#587EEC"/>
<path opacity="0.1" d="M155.832 109.835H147.272V118.379H155.832V109.835Z" fill="#587EEC"/>
<path opacity="0.1" d="M155.832 129.68H147.272V138.224H155.832V129.68Z" fill="#587EEC"/>
<path opacity="0.1" d="M155.832 149.523H147.272V158.066H155.832V149.523Z" fill="#587EEC"/>
<path opacity="0.1" d="M155.832 169.368H147.272V177.912H155.832V169.368Z" fill="#587EEC"/>
<path opacity="0.1" d="M155.832 189.213H147.272V197.757H155.832V189.213Z" fill="#587EEC"/>
<path opacity="0.1" d="M373.845 129.797H365.285V138.341H373.845V129.797Z" fill="#587EEC"/>
<path opacity="0.1" d="M341.168 150.871H332.608V159.415H341.168V150.871Z" fill="#587EEC"/>
<path opacity="0.1" d="M373.845 150.871H365.285V159.415H373.845V150.871Z" fill="#587EEC"/>
<path opacity="0.1" d="M341.168 171.942H332.608V180.486H341.168V171.942Z" fill="#587EEC"/>
<path opacity="0.1" d="M373.845 171.942H365.285V180.486H373.845V171.942Z" fill="#587EEC"/>
<path opacity="0.1" d="M341.168 193.016H332.608V201.56H341.168V193.016Z" fill="#587EEC"/>
<path opacity="0.1" d="M373.845 193.016H365.285V201.56H373.845V193.016Z" fill="#587EEC"/>
<path opacity="0.1" d="M341.168 214.09H332.608V222.634H341.168V214.09Z" fill="#587EEC"/>
<path opacity="0.1" d="M373.845 214.09H365.285V222.634H373.845V214.09Z" fill="#587EEC"/>
<path opacity="0.1" d="M332.608 240.671V235.161H341.165V239.887L332.608 240.671Z" fill="#587EEC"/>
<path opacity="0.1" d="M104.518 113.807V118.694H133.812V113.807H104.518ZM107.437 118.388H105.047V114.107H107.455L107.437 118.388ZM110.354 118.388H107.946V114.107H110.354V118.388ZM113.264 118.388H110.856V114.107H113.264V118.388ZM116.181 118.388H113.776V114.107H116.184L116.181 118.388ZM119.094 118.388H116.686V114.107H119.094V118.388ZM122.011 118.388H119.603V114.107H122.011V118.388ZM124.927 118.388H122.519V114.107H124.927V118.388ZM127.841 118.388H125.433V114.107H127.841V118.388ZM130.754 118.388H128.346V114.107H130.754V118.388ZM133.668 118.388H131.26V114.107H133.668V118.388Z" fill="#587EEC"/>
<path opacity="0.1" d="M104.518 128.028V132.916H133.812V128.028H104.518ZM107.437 132.606H105.047V128.338H107.455L107.437 132.606ZM110.354 132.606H107.946V128.338H110.354V132.606ZM113.264 132.606H110.856V128.338H113.264V132.606ZM116.181 132.606H113.776V128.338H116.184L116.181 132.606ZM119.094 132.606H116.686V128.338H119.094V132.606ZM122.011 132.606H119.603V128.338H122.011V132.606ZM124.927 132.606H122.519V128.338H124.927V132.606ZM127.841 132.606H125.433V128.338H127.841V132.606ZM130.754 132.606H128.346V128.338H130.754V132.606ZM133.668 132.606H131.26V128.338H133.668V132.606Z" fill="#587EEC"/>
<path opacity="0.1" d="M104.518 142.255V147.152H133.812V142.255H104.518ZM107.437 146.834H105.047V142.562H107.455L107.437 146.834ZM110.354 146.834H107.946V142.562H110.354V146.834ZM113.264 146.834H110.856V142.562H113.264V146.834ZM116.181 146.834H113.776V142.562H116.184L116.181 146.834ZM119.094 146.834H116.686V142.562H119.094V146.834ZM122.011 146.834H119.603V142.562H122.011V146.834ZM124.927 146.834H122.519V142.562H124.927V146.834ZM127.841 146.834H125.433V142.562H127.841V146.834ZM130.754 146.834H128.346V142.562H130.754V146.834ZM133.668 146.834H131.26V142.562H133.668V146.834Z" fill="#587EEC"/>
<path opacity="0.1" d="M104.518 156.483V161.365H133.812V156.483H104.518ZM107.437 161.061H105.047V156.786H107.455L107.437 161.061ZM110.354 161.061H107.946V156.786H110.354V161.061ZM113.264 161.061H110.856V156.786H113.264V161.061ZM116.181 161.061H113.776V156.786H116.184L116.181 161.061ZM119.094 161.061H116.686V156.786H119.094V161.061ZM122.011 161.061H119.603V156.786H122.011V161.061ZM124.927 161.061H122.519V156.786H124.927V161.061ZM127.841 161.061H125.433V156.786H127.841V161.061ZM130.754 161.061H128.346V156.786H130.754V161.061ZM133.668 161.061H131.26V156.786H133.668V161.061Z" fill="#587EEC"/>
<path opacity="0.1" d="M104.644 170.708C104.762 171.167 104.894 171.627 105.032 172.081V171.014H107.44V175.286H106.152C106.191 175.385 106.23 175.493 106.269 175.586H133.812V170.708H104.644ZM110.363 175.286H107.955V171.014H110.363V175.286ZM113.273 175.286H110.865V171.014H113.273V175.286ZM116.19 175.286H113.776V171.014H116.184L116.19 175.286ZM119.103 175.286H116.695V171.014H119.103V175.286ZM122.02 175.286H119.612V171.014H122.02V175.286ZM124.936 175.286H122.528V171.014H124.936V175.286ZM127.85 175.286H125.442V171.014H127.85V175.286ZM130.763 175.286H128.355V171.014H130.763V175.286ZM133.677 175.286H131.269V171.014H133.677V175.286Z" fill="#587EEC"/>
<path opacity="0.1" d="M111.446 184.935C111.522 185.031 111.594 185.139 111.672 185.236H113.264V187.287C113.436 187.492 113.604 187.696 113.779 187.888V185.224H116.187V189.51H115.212C115.308 189.61 115.401 189.715 115.513 189.811H133.821V184.935H111.446ZM119.094 189.51H116.686V185.242H119.094V189.51ZM122.011 189.51H119.603V185.242H122.011V189.51ZM124.927 189.51H122.519V185.242H124.927V189.51ZM127.841 189.51H125.433V185.242H127.841V189.51ZM130.754 189.51H128.346V185.242H130.754V189.51ZM133.668 189.51H131.26V185.242H133.668V189.51Z" fill="#587EEC"/>
<path opacity="0.1" d="M127.515 199.16C127.789 199.316 128.069 199.46 128.352 199.616V199.466H130.76V200.818L131.272 201.055V199.466H133.679V202.065C133.726 202.088 133.774 202.106 133.824 202.119V199.16H127.515Z" fill="#587EEC"/>
<path opacity="0.1" d="M326.182 124.486H326.2H326.182ZM307.642 213.15H307.943H307.642ZM288.298 168.037C288.355 168.229 288.404 168.421 288.458 168.611C288.41 168.421 288.358 168.229 288.298 168.037ZM326.182 124.477H326.2H326.182ZM144.391 79.4932V80.7759H157.836V79.4932H144.391ZM307.642 213.15H307.943H307.642ZM288.298 168.037C288.355 168.229 288.404 168.421 288.458 168.611C288.41 168.421 288.358 168.229 288.298 168.037ZM326.182 124.477H326.2H326.182ZM307.642 213.141H307.943H307.642ZM288.298 168.037C288.355 168.229 288.404 168.421 288.458 168.611C288.41 168.421 288.358 168.229 288.298 168.037Z" fill="#587EEC"/>
<path d="M238.032 138.23C238.032 138.23 236.846 138.065 236.846 136.34C236.846 134.616 235.997 131.395 235.997 131.395C235.997 131.38 235.263 125.787 234.248 124.898C233.234 124.008 231.931 118.787 231.931 118.787C231.931 118.787 231.708 115.954 231.254 115.344C230.799 114.735 230.185 113.241 229.279 111.112C228.373 108.982 224.596 107.507 224.596 107.507C224.596 107.507 217.767 103.553 215.832 102.264C215.656 102.158 215.491 102.035 215.341 101.895C215.004 101.453 213.535 101.444 213.535 101.444C213.382 100.477 213.234 99.3654 213.186 98.359C213.186 98.2509 213.186 98.1427 213.171 98.0346C215.329 96.7614 216.954 94.7539 217.749 92.3808C217.785 92.2666 217.815 92.1465 217.848 92.0323C217.977 91.9898 218.096 91.9208 218.197 91.8298C218.299 91.7387 218.379 91.6276 218.435 91.5036C218.61 91.1161 218.613 90.6624 218.829 90.3019C219.082 89.8753 219.564 89.647 219.943 89.3256C220.9 88.5145 221.147 87.1476 221.102 85.9039C221.072 84.8975 220.909 83.8821 220.972 82.8817L220.99 82.6294C221.008 82.4792 221.029 82.329 221.057 82.1848C221.204 81.4397 221.526 80.7368 221.707 79.9978C221.887 79.2587 221.905 78.4266 221.484 77.7897C220.867 76.8554 219.582 76.6692 218.453 76.573C217.174 76.4649 216.03 76.6061 215.212 75.5456C214.828 74.9914 214.397 74.4717 213.923 73.9925C213.755 73.8363 212.117 72.8389 212.117 72.7728C210.519 72.0341 208.708 71.8954 207.016 72.3823C206.167 72.6286 205.367 73.0312 204.506 73.2325C202.649 73.6711 200.512 73.1964 198.935 74.2569C198.056 74.8577 197.529 75.813 197.035 76.7443C196.634 77.5113 196.227 78.2774 195.813 79.0424C195.148 80.3012 194.471 81.5809 194.191 82.9749C194.132 83.2782 194.096 83.5854 194.083 83.8941V83.9091C194.083 84.0203 194.083 84.1314 194.083 84.2426V84.3838C194.083 84.4889 194.083 84.5911 194.101 84.6842C194.119 84.7773 194.116 84.8074 194.125 84.8705C194.134 84.9335 194.149 85.0747 194.167 85.1709C194.185 85.267 194.221 85.4352 194.257 85.5674C194.272 85.6245 194.294 85.6786 194.312 85.7326C194.342 85.8348 194.378 85.9339 194.417 86.0331C194.438 86.0841 194.459 86.1382 194.483 86.1893C194.528 86.2944 194.582 86.3966 194.637 86.4897C194.661 86.5317 194.679 86.5708 194.703 86.6099C194.787 86.7496 194.879 86.884 194.98 87.0124C195.624 87.8145 196.572 88.3252 197.273 89.0762C197.273 89.1063 197.273 89.1363 197.273 89.1634C197.273 89.2475 197.273 89.3286 197.273 89.4127C197.31 91.0877 197.757 92.7282 198.574 94.1916C199.392 95.6549 200.555 96.8969 201.962 97.8093C201.962 97.9234 201.978 98.0406 201.984 98.1547C202.042 99.0465 202.031 99.9414 201.95 100.831C201.828 100.687 201.674 100.573 201.502 100.496C201.329 100.419 201.14 100.381 200.951 100.387C200.822 100.381 200.692 100.392 200.566 100.42L200.539 100.399V100.426C199.877 100.588 199.061 101.276 198.282 103.232C198.282 103.232 195.91 105.899 194.104 105.788C192.298 105.677 187.726 108.564 187.726 108.564C187.726 108.564 183.266 111.454 182.309 114.398C181.774 116.068 181.132 117.701 180.388 119.289L174.874 130.629L173.857 139.627C173.857 139.627 174.42 143.628 174.309 144.238C174.197 144.848 176.623 150.349 176.623 150.349C176.623 150.349 184.638 164.405 187.913 165.126L188.148 164.961C188.288 165.034 188.436 165.089 188.59 165.126L189.264 164.651C189.305 165.18 189.288 165.712 189.213 166.237C188.762 167.625 189.382 176.683 190.17 178.458C190.959 180.234 190.679 203.513 190.679 203.513L190.567 205.567C190.567 205.567 190.567 205.634 190.595 205.748L190.567 206.234L190.649 206.276C190.733 206.928 190.706 207.59 190.567 208.232C190.285 209.133 190.17 211.681 190.17 211.681C190.17 211.681 187.916 226.065 188.984 228.955C190.053 231.845 190.962 235.011 190.962 235.011C190.962 235.011 192.09 238.616 191.016 239.232C189.941 239.848 186.886 240.881 187.516 242.383C188.087 243.771 190.257 247.49 190.579 248.034L190.552 248.319L190.11 253.105C190.182 253.737 190.353 254.353 190.619 254.931C191.103 255.974 192.045 257.055 193.836 256.938C194.137 256.917 194.486 256.881 194.823 256.836C198.101 256.397 202.137 254.937 202.137 254.937C201.927 254.805 201.735 254.646 201.565 254.466C201.404 254.31 201.276 254.123 201.19 253.917C201.104 253.71 201.06 253.488 201.063 253.264C201.111 252.393 199.476 248.241 199.07 247.22C199.007 247.073 198.974 246.988 198.974 246.988C198.974 246.988 202.7 243.101 202.08 239.655C202.08 239.655 197.956 237.252 199.314 235.933C200.671 234.614 203.097 230.826 203.097 230.826C203.097 230.826 203.209 216.662 203.097 214.547C202.981 213.079 203.051 211.602 203.305 210.152C203.35 209.932 203.404 209.719 203.461 209.509C205.339 209.789 207.234 209.932 209.132 209.939C209.824 209.939 210.528 209.938 211.239 209.896C211.239 210.097 211.248 210.313 211.266 210.545C211.422 214.054 211.714 220.207 211.952 222.493C212.289 225.77 214.152 234.602 214.152 234.602C214.152 234.602 210.598 236.88 214.772 242.491C214.772 242.491 214.772 244.525 214.495 244.819C214.2 245.782 213.961 246.761 213.782 247.752C213.607 248.809 213.535 249.878 213.818 250.434C214.495 251.762 218.558 251.654 218.558 251.654L218.658 251.636C219.425 251.557 220.2 251.63 220.938 251.853C221.677 252.075 222.363 252.441 222.959 252.931C224.503 254.168 230.363 253.625 233.535 253.231C234.778 253.075 235.609 252.931 235.609 252.931C235.649 252.79 235.663 252.644 235.651 252.498C235.618 251.72 235.007 250.014 230.865 248.491C230.865 248.491 226.971 245.877 227.025 243.6H226.944H226.492C226.82 243.582 227.031 243.6 227.031 243.6C227.031 243.6 225.505 238.042 226.128 237.592C226.751 237.141 224.885 230.982 224.885 230.982C224.885 230.982 223.817 220.648 223.759 219.924C223.762 219.303 223.856 218.685 224.039 218.092L223.759 212.426C223.759 212.426 223.705 210.542 223.759 209.929C223.75 209.398 223.707 208.867 223.63 208.34C223.603 208.13 223.576 207.911 223.546 207.694C225.005 207.325 225.953 206.982 225.953 206.982L225.785 187.26C227.025 184.857 227.254 179.585 227.248 175.845C227.248 173.441 227.139 171.663 227.139 171.663L228.834 168.902C228.834 168.902 229.225 165.598 228.605 164.874C228.331 164.546 228.455 164.207 228.68 163.927C228.798 163.834 228.921 163.75 229.051 163.675C229.051 163.675 229.032 163.648 229.011 163.609C229.13 163.51 229.255 163.421 229.388 163.341C229.388 163.341 228.786 162.41 229.324 162.017C229.83 162.359 230.282 162.617 230.625 162.828C230.601 163.047 230.576 163.173 230.576 163.173L230.721 162.873C231.052 163.059 231.254 163.173 231.254 163.173C231.254 163.173 233.908 157.895 233.851 157.117C233.794 156.339 235.657 153.061 235.657 153.061C235.657 153.061 235.883 151.34 236.9 150.619C237.917 149.898 237.689 144.674 237.689 144.674C237.689 144.674 237.972 141.952 238.649 140.84C239.326 139.729 238.032 138.23 238.032 138.23ZM187.239 135.914L187.29 137.172C186.989 136.689 186.772 136.34 186.772 136.34L187.239 135.914Z" fill="url(#paint0_linear_6_373)"/>
<path d="M231.398 160.893L230.748 163.657C230.748 163.657 225.541 161.004 224.602 157.634C223.663 154.263 226.173 152.983 226.173 152.983L231.025 155.035L231.398 160.893Z" fill="white"/>
<path opacity="0.1" d="M231.398 160.893L230.748 163.657C230.748 163.657 225.541 161.004 224.602 157.634C223.663 154.263 226.173 152.983 226.173 152.983L231.025 155.035L231.398 160.893Z" fill="black"/>
<path d="M202.176 254.956C202.176 254.956 197.361 256.722 194.05 256.944C192.292 257.061 191.368 255.986 190.893 254.95C190.633 254.373 190.465 253.76 190.396 253.132L190.826 248.37L191.055 245.835L198.089 244.011L199.085 247.052L199.178 247.283C199.579 248.298 201.183 252.429 201.135 253.291C201.133 253.512 201.176 253.731 201.26 253.935C201.345 254.139 201.47 254.323 201.628 254.478C201.79 254.66 201.974 254.82 202.176 254.956Z" fill="white"/>
<path d="M235.07 252.534C235.082 252.679 235.068 252.824 235.028 252.964C235.028 252.964 224.729 254.679 222.622 252.964C222.028 252.463 221.335 252.091 220.589 251.873C219.843 251.655 219.059 251.594 218.288 251.696C218.288 251.696 214.303 251.804 213.637 250.495C213.361 249.945 213.433 248.878 213.604 247.827C213.779 246.842 214.013 245.868 214.303 244.91L214.462 244.784L215.41 244.024L226.51 243.696H226.595C226.54 245.961 230.363 248.56 230.363 248.56C234.423 250.062 235.022 251.759 235.07 252.534Z" fill="white"/>
<path opacity="0.1" d="M235.07 252.534C235.081 252.679 235.065 252.824 235.025 252.964C235.025 252.964 224.729 254.679 222.622 252.964C222.028 252.463 221.336 252.092 220.59 251.873C219.844 251.655 219.061 251.595 218.291 251.696C218.291 251.696 214.303 251.804 213.64 250.494C213.364 249.942 213.433 248.878 213.604 247.827C215.139 247.98 217.562 248.362 218.513 249.272C219.952 250.657 222.39 252.039 223.886 252.147C225.057 252.222 232.06 252.444 235.07 252.534Z" fill="black"/>
<path opacity="0.1" d="M202.176 254.956C202.176 254.956 197.361 256.722 194.05 256.944C192.292 257.061 191.368 255.986 190.896 254.947C192.121 255.358 193.821 255.791 194.715 255.394C195.774 254.926 199.531 254.622 201.638 254.493C201.798 254.668 201.979 254.823 202.176 254.956Z" fill="black"/>
<path d="M209.321 112.605C205.349 111.064 200.238 105.972 201.514 103.592C201.797 102.992 201.966 102.344 202.011 101.682C202.093 100.783 202.105 99.8788 202.047 98.978C201.957 97.5027 201.779 96.034 201.514 94.58C201.514 94.58 213.917 94.8593 213.195 96.6828C212.984 97.2176 212.951 98.1459 213.008 99.1853C213.066 100.225 213.216 101.399 213.373 102.394C213.589 103.758 213.806 104.797 213.806 104.797C213.806 104.797 213.048 105.857 212.602 105.915C212.157 105.972 215.022 114.801 209.321 112.605Z" fill="#CF6F80"/>
<path opacity="0.1" d="M199.169 247.283L199.076 247.385C195.368 242.909 190.884 248.488 190.884 248.488L190.817 248.37L191.046 245.835L198.08 244.011L199.076 247.052L199.169 247.283Z" fill="black"/>
<path opacity="0.1" d="M226.598 244.012C226.598 244.012 223.889 243.954 222.444 245.228C220.999 246.502 214.017 245.505 214.318 245.228C214.407 245.091 214.461 244.934 214.474 244.772L215.422 244.012L226.522 243.684C226.564 243.885 226.598 244.012 226.598 244.012Z" fill="black"/>
<path d="M203.783 208.86C203.582 209.358 203.429 209.874 203.326 210.401C203.075 211.845 203.005 213.314 203.118 214.775C203.23 216.878 203.118 230.971 203.118 230.971C203.118 230.971 200.738 234.729 199.41 236.054C198.083 237.378 202.119 239.758 202.119 239.758C202.721 243.182 199.073 247.052 199.073 247.052C195.365 242.576 190.881 248.157 190.881 248.157C190.881 248.157 188.443 243.951 187.835 242.449C187.227 240.947 190.215 239.908 191.266 239.298C192.316 238.688 191.215 235.092 191.215 235.092C191.215 235.092 190.327 231.941 189.273 229.066C188.22 226.191 190.435 211.879 190.435 211.879C190.435 211.879 190.549 209.338 190.823 208.452C190.962 207.812 190.989 207.154 190.905 206.505C190.887 206.286 190.865 206.102 190.85 205.979C190.835 205.856 190.823 205.799 190.823 205.799L190.865 205.727L192.37 202.927C192.37 202.927 204.506 207.097 203.783 208.86Z" fill="#587EEC"/>
<path d="M226.598 243.681C226.598 243.681 223.889 243.624 222.444 244.883C220.999 246.142 214.017 245.159 214.318 244.883C214.619 244.607 214.595 242.561 214.595 242.561C210.498 236.979 213.993 234.714 213.993 234.714C213.993 234.714 212.163 225.927 211.832 222.667C211.6 220.39 211.314 214.271 211.16 210.777C211.094 209.275 211.055 208.241 211.055 208.241L214.402 207.569L214.832 207.481L222.905 205.865C222.905 205.865 223.127 207.367 223.278 208.596C223.353 209.121 223.395 209.649 223.404 210.179C223.35 210.78 223.404 212.661 223.404 212.661L223.678 218.299C223.499 218.891 223.407 219.505 223.404 220.123C223.458 220.841 224.509 231.121 224.509 231.121C224.509 231.121 226.336 237.255 225.713 237.697C225.09 238.139 226.598 243.681 226.598 243.681Z" fill="#587EEC"/>
<path opacity="0.1" d="M213.195 96.6828C212.984 97.2176 212.951 98.1459 213.008 99.1853C211.347 100.184 209.437 100.694 207.498 100.658C205.559 100.622 203.67 100.041 202.047 98.981C201.957 97.5047 201.78 96.035 201.514 94.58C201.514 94.58 213.917 94.8533 213.195 96.6828Z" fill="black"/>
<path d="M217.99 90.0438C217.992 91.1263 217.821 92.2023 217.484 93.2311C216.73 95.5364 215.184 97.5014 213.118 98.7788C211.053 100.056 208.602 100.564 206.198 100.212C203.794 99.8598 201.593 98.671 199.982 96.8554C198.371 95.0398 197.456 92.7144 197.397 90.2901C197.397 90.206 197.397 90.1279 197.397 90.0438C197.373 88.6792 197.622 87.3236 198.129 86.0561C198.636 84.7886 199.391 83.6345 200.35 82.6613C201.308 81.688 202.452 80.915 203.713 80.3873C204.974 79.8596 206.327 79.5879 207.695 79.5879C209.062 79.5879 210.416 79.8596 211.677 80.3873C212.938 80.915 214.081 81.688 215.039 82.6613C215.998 83.6345 216.753 84.7886 217.26 86.0561C217.767 87.3236 218.016 88.6792 217.993 90.0438H217.99Z" fill="#CF6F80"/>
<path opacity="0.1" d="M209.321 112.605C205.349 111.064 200.238 105.972 201.514 103.592C201.797 102.992 201.966 102.344 202.011 101.682L207.449 106.143L210.814 108.898L213.373 102.397C213.589 103.761 213.806 104.8 213.806 104.8C213.806 104.8 213.048 105.861 212.602 105.918C212.157 105.975 215.022 114.801 209.321 112.605Z" fill="black"/>
<path d="M223.386 132.321L218.844 208.476L212.921 208.863L197.583 164.705L200.099 112.28L200.629 101.204L207.449 106.795L210.817 109.55L213.451 102.859L218.348 107.119L223.386 132.321Z" fill="#587EEC"/>
<path opacity="0.1" d="M203.783 208.86C203.582 209.358 203.429 209.874 203.326 210.401C199.016 209.737 194.83 208.432 190.908 206.529L190.826 206.487L190.853 206.003L190.868 205.751L192.373 202.951C192.373 202.951 204.506 207.097 203.783 208.86Z" fill="black"/>
<path opacity="0.1" d="M214.471 210.413C213.369 210.6 212.258 210.727 211.142 210.792C211.076 209.29 211.037 208.256 211.037 208.256L214.384 207.583L214.471 210.413Z" fill="black"/>
<path opacity="0.1" d="M223.26 208.611C221.12 209.167 217.815 209.792 214.856 209.401L214.814 207.496L222.887 205.88C222.887 205.88 223.109 207.367 223.26 208.611Z" fill="black"/>
<path opacity="0.1" d="M214.802 209.749C202.462 211.852 191.16 205.823 191.16 205.823L191.269 203.78C191.269 203.78 191.549 180.621 190.772 178.846C189.996 177.07 189.391 168.067 189.83 166.685C190.27 165.303 188.226 144.581 188.226 144.581L187.895 136.169L175.777 131.269L181.195 119.998C181.927 118.418 182.556 116.792 183.079 115.131C184.021 112.205 188.394 109.33 188.394 109.33C188.394 109.33 192.879 106.458 194.652 106.566C196.425 106.675 198.748 104.025 198.748 104.025C200.464 99.66 202.017 101.637 202.017 101.637C202.017 101.844 202.017 101.637 201.932 102.283C201.33 107.074 211.666 122.215 211.814 122.482L212.798 146.413L213.794 176.698L214.802 209.749Z" fill="black"/>
<path d="M214.471 209.749C202.131 211.852 190.826 205.823 190.826 205.823L190.938 203.78C190.938 203.78 191.218 180.621 190.438 178.846C189.658 177.07 189.057 168.067 189.499 166.685C189.941 165.303 187.895 144.581 187.895 144.581L187.561 136.169L175.437 131.251L180.855 119.98C181.585 118.399 182.214 116.774 182.739 115.113C183.678 112.187 188.054 109.312 188.054 109.312C188.054 109.312 192.539 106.44 194.309 106.549C196.078 106.657 198.405 104.007 198.405 104.007C200.123 99.642 202.017 101.619 202.017 101.619C202.017 101.826 201.836 101.919 201.932 102.265C203.257 106.912 211.335 122.197 211.482 122.464L212.479 146.395L213.475 176.68L214.471 209.749Z" fill="white"/>
<path opacity="0.1" d="M211.145 123.146C209.818 122.594 202.787 114.582 202.787 114.582V112.758C202.531 112.157 201.011 112.524 199.777 112.944L200.307 101.868L200.909 102.367C202.227 107.011 210.992 122.879 211.145 123.146Z" fill="black"/>
<path d="M211.479 122.482C210.149 121.93 203.118 113.918 203.118 113.918V112.094C202.862 111.493 201.343 111.86 200.109 112.28L200.641 101.204L201.243 101.703C202.564 106.347 211.332 122.218 211.479 122.482Z" fill="white"/>
<path opacity="0.1" d="M191.16 162.44C191.326 162.44 199.741 161.557 199.741 161.557C199.741 161.557 204.837 171.558 204.503 173.991C204.169 176.424 203.564 178.578 201.514 178.197C199.464 177.815 190.483 178.497 190.483 178.497L191.16 162.44Z" fill="black"/>
<path d="M190.826 161.777C190.992 161.777 199.407 160.893 199.407 160.893C199.407 160.893 204.5 170.897 204.169 173.327C203.838 175.758 203.227 177.915 201.18 177.533C199.133 177.152 190.149 177.834 190.149 177.834L190.826 161.777Z" fill="white"/>
<path d="M197.168 157.081C197.168 157.081 204.891 161.224 205.057 162.488C205.222 163.753 201.126 161.936 200.241 161.716C199.659 161.576 199.066 161.484 198.468 161.44L192.566 161.599L197.168 157.081Z" fill="#CF6F80"/>
<path opacity="0.1" d="M208.99 123.663C209.439 123.663 209.803 123.3 209.803 122.852C209.803 122.404 209.439 122.041 208.99 122.041C208.542 122.041 208.178 122.404 208.178 122.852C208.178 123.3 208.542 123.663 208.99 123.663Z" fill="black"/>
<path d="M208.99 123.333C209.439 123.333 209.803 122.97 209.803 122.522C209.803 122.074 209.439 121.71 208.99 121.71C208.542 121.71 208.178 122.074 208.178 122.522C208.178 122.97 208.542 123.333 208.99 123.333Z" fill="#3F3D56"/>
<path opacity="0.1" d="M210.486 158.775C210.935 158.775 211.299 158.412 211.299 157.964C211.299 157.516 210.935 157.153 210.486 157.153C210.037 157.153 209.674 157.516 209.674 157.964C209.674 158.412 210.037 158.775 210.486 158.775Z" fill="black"/>
<path d="M210.486 158.442C210.935 158.442 211.299 158.079 211.299 157.631C211.299 157.183 210.935 156.82 210.486 156.82C210.037 156.82 209.674 157.183 209.674 157.631C209.674 158.079 210.037 158.442 210.486 158.442Z" fill="#3F3D56"/>
<path opacity="0.1" d="M209.8 141.219C210.249 141.219 210.613 140.856 210.613 140.408C210.613 139.96 210.249 139.597 209.8 139.597C209.351 139.597 208.987 139.96 208.987 140.408C208.987 140.856 209.351 141.219 209.8 141.219Z" fill="black"/>
<path d="M209.8 140.889C210.249 140.889 210.613 140.526 210.613 140.078C210.613 139.63 210.249 139.267 209.8 139.267C209.351 139.267 208.987 139.63 208.987 140.078C208.987 140.526 209.351 140.889 209.8 140.889Z" fill="#3F3D56"/>
<path d="M228.533 161.272C228.533 161.272 229.087 162.101 228.533 162.488C227.979 162.876 228.587 163.813 228.587 163.813C228.587 163.813 227.206 164.621 227.814 165.348C228.422 166.075 228.036 169.359 228.036 169.359L226.375 172.105C226.375 172.105 226.474 173.874 226.48 176.265C226.48 179.996 226.261 185.242 225.045 187.633L225.213 207.253C225.213 207.253 219.395 209.374 214.525 208.728L213.803 177.245C213.803 177.245 214.856 159.391 215.245 155.966C215.472 154.188 215.564 152.396 215.522 150.604C215.522 150.604 215.356 145.245 214.799 142.757C214.799 142.757 214.197 131.981 214.137 128.998C214.11 127.571 214.185 123.408 214.27 119.448C214.363 115.119 214.468 111.037 214.468 111.037L213.37 102.361C213.37 102.361 214.468 102.249 214.799 102.691C214.948 102.829 215.109 102.953 215.281 103.061C217.177 104.34 223.877 108.276 223.877 108.276C223.877 108.276 227.585 109.748 228.473 111.857C229.361 113.966 229.978 115.462 230.408 116.062C230.838 116.663 231.073 119.487 231.073 119.487C231.073 119.487 232.349 124.684 233.346 125.565C234.342 126.445 235.07 132.044 235.07 132.044L226.267 138.954C226.267 138.954 225.493 150.448 225.327 150.892C225.162 151.337 228.533 161.272 228.533 161.272Z" fill="white"/>
<path d="M228.867 161.272C228.867 161.272 229.418 162.101 228.867 162.489C228.316 162.876 228.918 163.813 228.918 163.813C228.918 163.813 227.546 164.63 228.148 165.357C228.75 166.084 228.37 169.368 228.37 169.368L226.709 172.114C226.709 172.114 226.808 173.883 226.817 176.275C226.817 180.006 226.598 185.251 225.382 187.642L225.547 207.262C225.547 207.262 219.72 209.383 214.856 208.737L214.137 177.254C214.137 177.254 215.19 159.4 215.579 155.976C215.806 154.198 215.898 152.405 215.853 150.613C215.853 150.613 215.687 145.254 215.133 142.766C215.133 142.766 214.531 131.991 214.468 129.007C214.441 127.581 214.519 123.417 214.601 119.457C214.694 115.128 214.799 111.046 214.799 111.046L213.349 102.253C213.349 102.253 214.799 102.253 215.133 102.7C215.28 102.84 215.442 102.964 215.615 103.07C217.511 104.35 224.214 108.285 224.214 108.285C224.214 108.285 227.919 109.757 228.807 111.866C229.695 113.975 230.312 115.471 230.745 116.072C231.178 116.673 231.407 119.496 231.407 119.496C231.407 119.496 232.683 124.694 233.68 125.574C234.676 126.454 235.395 132.042 235.395 132.042L226.592 138.951C226.592 138.951 225.818 150.445 225.649 150.89C225.481 151.334 228.867 161.272 228.867 161.272Z" fill="white"/>
<path opacity="0.1" d="M218.324 113.596L219.118 115.909L214.935 120.115C215.028 115.789 215.133 111.703 215.133 111.703L213.683 102.91C213.683 102.91 215.133 102.91 215.467 103.358C215.614 103.498 215.775 103.62 215.949 103.725L219.507 113.969L218.324 113.596Z" fill="black"/>
<path d="M217.99 112.932L218.787 115.245L214.604 119.451C214.697 115.122 214.802 111.04 214.802 111.04L213.349 102.247C213.349 102.247 214.802 102.247 215.133 102.694C215.281 102.833 215.442 102.957 215.615 103.064L219.175 113.305L217.99 112.932Z" fill="white"/>
<path opacity="0.1" d="M217.99 90.0438C217.992 91.1263 217.821 92.2023 217.484 93.2311C217.427 93.24 217.369 93.2374 217.313 93.2235C217.257 93.2095 217.205 93.1846 217.159 93.15C217.081 90.4463 215.747 87.9078 214.107 85.7479C213.646 85.0957 213.088 84.5182 212.452 84.0355C211.808 83.5531 211.008 83.3271 210.206 83.4016C209.303 83.5248 208.506 84.1376 207.594 84.2157C206.39 84.3149 205.312 83.4827 204.118 83.4407C203.632 83.4453 203.153 83.5532 202.712 83.7573C202.271 83.9615 201.879 84.257 201.562 84.6243C200.935 85.3655 200.468 86.229 200.193 87.1598C199.72 88.5713 199.462 90.0458 199.428 91.5338C199.413 92.375 199.332 93.4294 198.549 93.7358C198.608 93.1172 198.538 92.4931 198.343 91.9031C198.147 91.3131 197.831 90.7699 197.415 90.3081L197.397 90.2901C197.397 90.206 197.397 90.1279 197.397 90.0438C197.373 88.6792 197.622 87.3236 198.129 86.0561C198.636 84.7886 199.391 83.6345 200.35 82.6613C201.308 81.688 202.452 80.915 203.713 80.3873C204.974 79.8596 206.327 79.5879 207.695 79.5879C209.062 79.5879 210.416 79.8596 211.677 80.3873C212.938 80.915 214.081 81.688 215.039 82.6613C215.998 83.6345 216.753 84.7886 217.26 86.0561C217.767 87.3236 218.016 88.6792 217.993 90.0438H217.99Z" fill="black"/>
<path d="M211.958 73.7224C210.394 72.9881 208.615 72.8492 206.956 73.3319C206.122 73.5782 205.336 73.9777 204.491 74.179C202.685 74.6146 200.578 74.143 199.028 75.1974C198.167 75.7982 197.649 76.7476 197.168 77.6698L195.964 79.959C195.308 81.2117 194.646 82.4854 194.372 83.8643C194.098 85.2432 194.263 86.7874 195.139 87.8959C195.777 88.704 196.719 89.2117 197.412 89.9717C197.826 90.434 198.141 90.9769 198.336 91.5662C198.53 92.1555 198.601 92.7786 198.543 93.3965C199.329 93.096 199.404 92.0386 199.422 91.1974C199.456 89.7094 199.713 88.2349 200.187 86.8234C200.461 85.8923 200.928 85.0287 201.556 84.2879C201.874 83.9209 202.266 83.6256 202.706 83.4215C203.147 83.2174 203.626 83.1093 204.111 83.1043C205.315 83.1464 206.396 83.9755 207.588 83.8764C208.491 83.8013 209.291 83.1854 210.2 83.0652C211.002 82.9895 211.803 83.2156 212.446 83.6991C213.082 84.181 213.639 84.7587 214.098 85.4115C215.741 87.5714 217.075 90.1039 217.153 92.8137C217.493 93.063 217.984 92.7385 218.152 92.354C218.321 91.9695 218.327 91.5189 218.54 91.1524C218.787 90.7288 219.26 90.5035 219.63 90.185C220.569 89.3769 220.804 88.0161 220.768 86.7814C220.732 85.5467 220.491 84.2939 220.725 83.0803C220.867 82.3352 221.186 81.6383 221.361 80.9023C221.535 80.1663 221.556 79.3401 221.144 78.7062C220.542 77.775 219.275 77.5917 218.17 77.5046C216.915 77.3964 215.792 77.5346 214.992 76.4802C214.616 75.9299 214.193 75.4133 213.728 74.9361C213.568 74.7798 211.958 73.7885 211.958 73.7224Z" fill="#512E4E"/>
<path opacity="0.1" d="M179.245 137.073L176.1 131.269L175.103 140.225C175.103 140.225 175.657 144.202 175.546 144.812C175.434 145.422 177.815 150.889 177.815 150.889C177.815 150.889 185.68 164.871 188.891 165.592L199.741 157.853L196.864 154.206C196.864 154.206 195.868 153.818 195.618 154.206C195.618 154.206 190.276 145.031 189.722 144.367C189.168 143.703 189.276 142.379 189.276 142.379C189.276 142.379 188.446 141.495 188.723 140.666C188.999 139.837 187.118 136.962 187.118 136.962L188.834 135.361L179.245 137.073Z" fill="black"/>
<path d="M176.265 130.609L175.434 131.27L174.438 140.225C174.438 140.225 174.992 144.202 174.88 144.812C174.769 145.422 177.153 150.89 177.153 150.89C177.153 150.89 185.014 164.871 188.226 165.592L199.079 157.853L196.199 154.206C196.199 154.206 195.202 153.819 194.953 154.206C194.953 154.206 189.61 145.031 189.057 144.368C188.503 143.704 188.614 142.379 188.614 142.379C188.614 142.379 187.783 141.496 188.06 140.666C188.337 139.837 186.453 136.962 186.453 136.962L188.169 135.361L176.265 130.609Z" fill="white"/>
<path opacity="0.1" d="M227.814 165.691C228.415 166.421 228.036 169.698 228.036 169.698L226.375 172.444C226.375 172.444 226.474 174.217 226.48 176.605L223.687 177.476C223.435 177.555 223.167 177.572 222.907 177.526C222.646 177.481 222.4 177.374 222.19 177.214C221.979 177.055 221.81 176.847 221.696 176.609C221.582 176.371 221.527 176.109 221.535 175.845L222.017 160.34L228.533 162.828C227.979 163.212 228.587 164.156 228.587 164.156C228.587 164.156 227.206 164.961 227.814 165.691Z" fill="black"/>
<path d="M228.148 165.357C228.75 166.087 228.37 169.368 228.37 169.368L226.709 172.114C226.709 172.114 226.808 173.883 226.817 176.274L223.973 177.161C223.726 177.237 223.464 177.254 223.209 177.209C222.954 177.164 222.713 177.059 222.507 176.903C222.301 176.747 222.136 176.543 222.024 176.31C221.912 176.077 221.858 175.821 221.866 175.562L222.351 160.01L228.87 162.497C228.313 162.882 228.921 163.822 228.921 163.822C228.921 163.822 227.546 164.63 228.148 165.357Z" fill="white"/>
<path d="M230.306 157.967C230.306 157.967 229.863 160.788 228.756 160.953C227.648 161.119 227.151 165.517 226.047 165.36C224.942 165.204 225.674 161.272 225.713 160.509C225.752 159.746 224.509 156.585 225.439 155.867C226.369 155.149 229.312 155.867 229.312 155.867L230.306 157.967Z" fill="#CF6F80"/>
<path opacity="0.1" d="M232.662 136.244L234.751 132.038C234.751 132.038 235.582 135.244 235.582 136.956C235.582 138.669 236.744 138.837 236.744 138.837C236.744 138.837 238.017 140.339 237.346 141.432C236.674 142.526 236.403 145.248 236.403 145.248C236.403 145.248 236.623 150.442 235.627 151.16C234.631 151.878 234.423 153.593 234.423 153.593C234.423 153.593 232.593 156.853 232.65 157.628C232.707 158.403 230.104 163.651 230.104 163.651C230.104 163.651 231.377 157.129 223.958 154.311C223.958 154.311 223.901 152.097 224.455 151.49C225.008 150.883 225.872 150.607 225.331 147.54C224.789 144.473 225.174 140.808 225.174 140.072C225.174 139.335 226.835 134.745 226.835 134.745L232.662 136.244Z" fill="black"/>
<path d="M233.565 131.438L235.389 132.038C235.389 132.038 236.223 135.244 236.223 136.956C236.223 138.669 237.385 138.837 237.385 138.837C237.385 138.837 238.658 140.339 237.987 141.432C237.315 142.526 237.048 145.248 237.048 145.248C237.048 145.248 237.267 150.442 236.271 151.16C235.275 151.878 235.052 153.593 235.052 153.593C235.052 153.593 233.225 156.853 233.282 157.628C233.34 158.403 230.733 163.651 230.733 163.651C230.733 163.651 232.009 157.129 224.587 154.311C224.587 154.311 224.533 152.097 225.087 151.49C225.641 150.883 226.504 150.607 225.963 147.54C225.421 144.473 225.806 140.808 225.806 140.071C225.806 139.335 227.467 134.745 227.467 134.745L233.565 131.438Z" fill="white"/>
<path opacity="0.1" d="M193.279 240.449C193.279 240.449 196.187 238.625 198.095 239.95C200.003 241.275 193.279 240.449 193.279 240.449Z" fill="black"/>
<path opacity="0.1" d="M215.871 234.81C215.871 234.81 218.444 234.479 220.605 236.802C222.766 239.124 215.871 234.81 215.871 234.81Z" fill="black"/>
<g opacity="0.1">
<path opacity="0.1" d="M219.636 89.5271C219.266 89.8455 218.79 90.0738 218.543 90.4974C218.333 90.8609 218.327 91.3085 218.158 91.6991C217.99 92.0896 217.499 92.408 217.159 92.1617C217.081 89.458 215.744 86.9195 214.104 84.7565C213.645 84.1037 213.088 83.5261 212.452 83.0442C211.807 82.5608 211.006 82.3347 210.203 82.4103C209.3 82.5335 208.506 83.1463 207.594 83.2214C206.39 83.3235 205.309 82.4914 204.114 82.4493C203.629 82.4542 203.15 82.5625 202.71 82.7672C202.27 82.9718 201.878 83.2681 201.562 83.636C200.934 84.3757 200.467 85.2383 200.193 86.1685C199.72 87.58 199.462 89.0545 199.428 90.5425C199.41 91.3806 199.332 92.4261 198.555 92.7385C198.573 92.9604 198.573 93.1835 198.555 93.4054C199.338 93.105 199.416 92.0475 199.434 91.2064C199.468 89.7184 199.726 88.2438 200.199 86.8324C200.473 85.9013 200.94 85.0377 201.568 84.2969C201.885 83.93 202.276 83.6346 202.717 83.4305C203.157 83.2264 203.635 83.1183 204.121 83.1133C205.324 83.1553 206.408 83.9844 207.6 83.8853C208.503 83.8102 209.303 83.1944 210.209 83.0742C211.012 82.9986 211.813 83.2247 212.458 83.7081C213.094 84.19 213.651 84.7677 214.11 85.4204C215.75 87.5804 217.087 90.1129 217.165 92.8226C217.505 93.0719 217.996 92.7475 218.164 92.363C218.333 91.9784 218.339 91.5278 218.549 91.1613C218.796 90.7377 219.272 90.5124 219.642 90.194C220.581 89.3859 220.816 88.025 220.78 86.7903C220.78 86.7513 220.78 86.7122 220.78 86.6762C220.722 87.7456 220.437 88.8361 219.636 89.5271Z" fill="black"/>
<path opacity="0.1" d="M197.418 89.3137C196.725 88.5537 195.78 88.046 195.145 87.2409C194.611 86.5282 194.305 85.6702 194.269 84.7805C194.175 85.8923 194.486 87.0008 195.145 87.9018C195.78 88.7099 196.725 89.2176 197.418 89.9777C198.082 90.7211 198.481 91.6635 198.552 92.6573C198.598 92.0525 198.522 91.4446 198.327 90.87C198.132 90.2955 197.823 89.7661 197.418 89.3137Z" fill="black"/>
<path opacity="0.1" d="M221.367 80.2442C221.189 80.9802 220.873 81.6802 220.728 82.4222C220.643 82.9181 220.612 83.4217 220.635 83.9243C220.645 83.638 220.676 83.3528 220.728 83.0711C220.873 82.3261 221.189 81.6291 221.367 80.8931C221.47 80.4872 221.504 80.0666 221.466 79.6494C221.447 79.8498 221.414 80.0486 221.367 80.2442Z" fill="black"/>
</g>
<path opacity="0.1" d="M139.049 252.663C155.246 252.663 168.376 250.559 168.376 247.962C168.376 245.365 155.246 243.26 139.049 243.26C122.852 243.26 109.722 245.365 109.722 247.962C109.722 250.559 122.852 252.663 139.049 252.663Z" fill="#587EEC"/>
<path d="M139.994 157.898H138.107V200.308H139.994V157.898Z" fill="#535461"/>
<path d="M151.853 200.178L151.735 202.089L151.567 204.793L151.497 205.916L151.332 208.62L151.26 209.744L151.091 212.447L149.189 243.11C149.106 244.43 148.523 245.668 147.558 246.573C146.593 247.479 145.318 247.983 143.994 247.983H134.104C132.78 247.983 131.506 247.478 130.541 246.573C129.577 245.668 128.994 244.429 128.912 243.11L127.019 212.426L126.85 209.723L126.781 208.599L126.613 205.895L126.543 204.772L126.375 202.068L126.254 200.157C126.234 199.79 126.288 199.422 126.415 199.076C126.542 198.73 126.738 198.413 126.991 198.146C127.245 197.878 127.551 197.665 127.89 197.52C128.229 197.375 128.594 197.3 128.963 197.3H149.192C149.56 197.304 149.923 197.382 150.259 197.531C150.595 197.679 150.897 197.895 151.146 198.165C151.396 198.434 151.587 198.752 151.708 199.099C151.83 199.445 151.879 199.812 151.853 200.178Z" fill="#3F3D56"/>
<path d="M151.735 202.089L151.567 204.784H126.531L126.363 202.089H151.735Z" fill="#9D9CB5"/>
<path d="M151.498 205.907L151.332 208.605H126.769L126.601 205.907H151.498Z" fill="#9D9CB5"/>
<path d="M151.26 209.731L151.094 212.426H127.007L126.838 209.731H151.26Z" fill="#9D9CB5"/>
<path d="M123.482 173.793C134.471 181.73 139.058 194.143 139.058 194.143C139.058 194.143 125.815 193.689 114.823 185.752C103.831 177.815 99.2536 165.405 99.2536 165.405C99.2536 165.405 112.491 165.856 123.482 173.793Z" fill="#587EEC"/>
<path d="M99.2446 165.405C99.2446 165.405 112.993 173.021 117.403 179.327C121.812 185.632 139.058 194.143 139.058 194.143" stroke="#535461" stroke-width="2" stroke-miterlimit="10"/>
<path d="M130.576 157.805C136.557 162.122 139.058 168.878 139.058 168.878C139.058 168.878 131.85 168.632 125.866 164.315C119.883 159.998 117.388 153.239 117.388 153.239C117.388 153.239 124.593 153.485 130.576 157.805Z" fill="#587EEC"/>
<path d="M117.388 153.239C117.388 153.239 124.87 157.384 127.269 160.815C129.667 164.246 139.058 168.878 139.058 168.878" stroke="#535461" stroke-width="2" stroke-miterlimit="10"/>
<path d="M147.741 168.536C140.87 176.073 139.416 185.924 139.416 185.924C139.416 185.924 149.105 183.55 155.97 176.01C162.835 168.47 164.295 158.622 164.295 158.622C164.295 158.622 154.613 160.998 147.741 168.536Z" fill="#587EEC"/>
<path d="M164.301 158.625C164.301 158.625 155.35 166.352 153.075 171.675C150.799 176.998 139.416 185.924 139.416 185.924" stroke="#535461" stroke-width="2" stroke-miterlimit="10"/>
<path d="M399.979 165.883C399.979 165.883 395.01 141.207 396.912 138.137C396.912 138.137 396.981 135.283 396.867 131.645C396.867 131.507 396.867 131.369 396.867 131.227C397.202 131.45 397.551 131.651 397.911 131.828C399.664 132.727 401.676 132.986 403.6 132.561L402.095 130.888C401.734 130.488 401.358 130.056 401.279 129.527C401.201 128.998 401.418 128.527 401.605 128.055C403.034 124.45 403.109 119.917 400.355 117.165C398.029 114.852 397.463 111.866 394.938 109.754C393.093 108.207 392.079 105.939 391.121 103.746C390.312 101.892 389.496 100.023 389.033 98.0587C388.671 96.5236 388.527 94.9344 388.03 93.4354C387.534 91.9363 386.604 90.4793 385.15 89.8094C384.632 89.5721 384.057 89.4369 383.585 89.1214C382.965 88.7039 382.592 88.0249 382.143 87.4301C379.865 84.426 372.235 86.1954 368.623 87.4151C367.641 87.7222 366.732 88.2251 365.951 88.8931L365.984 88.8391C366.011 88.794 366.044 88.7489 366.074 88.7039C365.679 89.0229 365.337 89.4033 365.063 89.8304C364.536 90.6626 364.316 91.6329 363.877 92.5341C363.347 93.6006 360.401 96.5777 361.668 97.7764C361.756 97.8569 361.858 97.9218 361.969 97.9686C362.444 98.1662 362.968 98.2185 363.474 98.1188L363.419 98.248C362.987 99.3056 362.765 100.437 362.766 101.58C362.766 106.515 366.844 110.517 371.88 110.517C372.826 110.518 373.768 110.373 374.67 110.087C374.691 110.201 374.709 110.316 374.73 110.43C374.73 110.475 374.745 110.52 374.751 110.565L374.592 110.787C374.584 110.774 374.575 110.76 374.565 110.748L369.839 117.339C369.117 117.847 364.957 120.851 364.723 123.104C364.476 125.571 364.229 128.458 364.229 128.458L364.196 129.076C363.989 129.249 363.748 129.374 363.488 129.444C363.228 129.514 362.956 129.527 362.691 129.482C361.216 129.242 361.216 134.889 361.216 134.889C361.216 134.889 360.235 135.791 359.561 135.01C358.887 134.229 357.105 136.875 357.105 136.875L345.939 137.356L345.683 137.371L345.081 135.511C345.016 135.315 344.876 135.152 344.692 135.058C344.508 134.965 344.294 134.947 344.097 135.01C344.05 135.025 344.005 135.044 343.961 135.067L343.919 135.091L343.841 135.145L343.802 135.181C343.78 135.2 343.76 135.221 343.741 135.244L343.705 135.286L343.687 135.304C343.618 135.4 343.572 135.511 343.553 135.628C343.534 135.744 343.543 135.864 343.579 135.977L344.097 137.572C341.942 138.005 339.738 139.224 341.535 142.583L332.428 140.904L335.374 143.373L350.586 146.506C350.384 146.867 350.516 147.39 351.145 148.126C353.854 151.301 358.79 152.163 360.777 152.385C361.301 153.557 361.957 154.665 362.73 155.69L362.559 158.853C362.559 158.853 357.529 182.965 356.608 184.187C357.073 183.661 357.499 183.102 357.881 182.514C356.422 187.468 354.381 194.248 353.845 195.263C352.984 196.886 352.187 203.45 353.168 203.87C353.469 203.999 354.33 203.936 355.558 203.843V204.387L355.504 224.992C355.504 224.992 355.75 237.631 355.073 238.835C354.396 240.04 354.215 242.567 354.215 242.567C354.215 242.567 351.507 247.55 349.361 249.554C349.346 249.57 349.33 249.584 349.313 249.596L349.246 249.128C349.246 249.128 346.667 252.378 340.96 252.195C340.96 252.195 337.526 254.424 342.619 254.544C347.711 254.664 354.215 254.364 354.215 254.364C354.215 254.364 358.757 247.454 362.562 248.356V253.592H363.726V248.271C364.267 247.916 364.729 247.456 365.085 246.917C365.442 246.379 365.685 245.773 365.8 245.138C365.9 244.483 365.827 243.814 365.588 243.196C365.35 242.578 364.954 242.033 364.44 241.614C364.209 241.406 364.023 241.152 363.896 240.869C363.768 240.585 363.7 240.279 363.696 239.968L363.654 240.004C363.654 239.899 363.627 239.791 363.615 239.68C363.281 236.976 362.863 231.397 364.34 227.27C366.366 221.61 366.98 213.727 365.505 209.034C365.029 207.534 364.638 206.009 364.334 204.465C364.298 204.27 364.265 204.084 364.235 203.909C365.243 204.046 366.241 204.246 367.224 204.51C370.64 205.45 378.113 205.625 384.494 205.574C384.509 205.748 384.527 205.931 384.548 206.114C384.662 207.388 384.9 208.648 385.258 209.876C386.059 212.279 386.426 222.874 386.426 222.874C386.426 222.874 387.459 231.586 386.896 235.131C386.595 237.102 386.294 239.082 386.122 241.07V241.11C386.122 241.11 384.431 245.916 383.194 248.527C383.164 248.593 383.13 248.659 383.1 248.722C382.771 248.752 382.446 248.824 382.134 248.935C382.134 248.935 380.476 252.24 378.823 252.787C377.171 253.333 377.719 255.133 381.46 254.472C385.201 253.811 390.851 253.27 390.851 253.27L391.094 249.9L392.244 248.464L391.943 251.825L393.168 251.585L393.006 247.496L394.887 245.147C394.887 245.147 397.159 243.128 393.782 239.157V239.244C393.746 239.187 393.713 239.127 393.674 239.07V239.052C393.114 238.187 392.668 236.573 393.484 233.71C394.959 228.537 395.817 223.842 395.817 223.842C395.817 223.842 399.109 211.263 395.152 205.312H395.326C394.92 204.475 394.634 203.585 394.474 202.669C394.454 202.561 394.436 202.449 394.42 202.335C397.349 202.167 400.223 201.638 402.568 200.497C402.559 200.485 401.147 170.636 399.979 165.883ZM362.799 145.064V145.124L362.197 145.155L362.799 145.064ZM360.735 145.35C360.636 145.372 360.543 145.416 360.464 145.479C360.205 145.844 360.042 146.269 359.991 146.714L359.052 146.503C359.052 146.503 358.393 146.362 357.445 146.203L356.996 145.752C358.23 145.65 359.513 145.5 360.735 145.35Z" fill="url(#paint1_linear_6_373)"/>
<path d="M391.805 247.538L391.447 251.795L392.647 251.555L392.467 246.938L391.805 247.538Z" fill="#1D2366"/>
<path d="M364.406 227.326C362.959 231.442 363.368 236.997 363.693 239.694C363.814 240.692 363.925 241.299 363.925 241.299C363.925 241.299 361.761 246.219 361.58 246.406C361.4 246.592 355.212 250.362 355.212 250.362L350.887 252.883C350.887 252.883 346.498 250.963 348.602 250.302C349.032 250.13 349.419 249.866 349.737 249.53C351.844 247.532 354.489 242.566 354.489 242.566C354.489 242.566 354.67 240.046 355.332 238.847C355.994 237.649 355.753 225.052 355.753 225.052L355.805 204.519V201.842L364.036 201.902C364.088 202.811 364.207 203.715 364.391 204.606C364.687 206.145 365.07 207.665 365.538 209.16C366.989 213.844 366.387 221.688 364.406 227.326Z" fill="#FFB0B1"/>
<path opacity="0.1" d="M363.925 241.299C363.925 241.299 361.761 246.22 361.58 246.406C361.4 246.592 355.212 250.362 355.212 250.362L350.887 252.883C350.887 252.883 346.498 250.963 348.602 250.302C349.032 250.13 349.419 249.867 349.737 249.53L349.923 250.843L351.365 250.783L363.705 239.701C363.814 240.692 363.925 241.299 363.925 241.299Z" fill="black"/>
<path d="M363.775 239.98L351.365 251.137L349.923 251.197L349.622 249.095C349.622 249.095 347.1 252.333 341.496 252.153C341.496 252.153 338.131 254.373 343.118 254.493C348.106 254.613 354.474 254.313 354.474 254.313C354.474 254.313 358.923 247.403 362.646 248.304V253.523H363.79V248.256C364.321 247.899 364.775 247.438 365.124 246.901C365.472 246.364 365.709 245.762 365.818 245.132C365.917 244.483 365.847 243.819 365.615 243.204C365.382 242.59 364.995 242.045 364.491 241.623C364.266 241.412 364.086 241.158 363.963 240.875C363.84 240.593 363.775 240.288 363.775 239.98Z" fill="#1D2366"/>
<path d="M392.948 233.743C392.148 236.597 392.584 238.205 393.132 239.067V239.085C393.834 240.149 394.323 241.34 394.571 242.591L394.619 242.861L388.972 251.077L385.908 252.279C385.908 252.279 380.981 250.6 381.881 250.119C382.107 250.002 382.459 249.377 382.863 248.515C384.066 245.916 385.728 241.122 385.728 241.122V241.083C385.902 239.103 386.179 237.129 386.486 235.164C387.037 231.629 386.026 222.95 386.026 222.95C386.026 222.95 385.665 212.396 384.882 209.996C384.529 208.775 384.294 207.524 384.181 206.259C384.018 204.757 383.982 203.519 383.982 203.519C383.982 203.519 387.227 199.013 393.174 203.879C393.65 204.267 394.068 204.721 394.417 205.225C398.525 211.059 395.218 223.911 395.218 223.911C395.218 223.911 394.39 228.585 392.948 233.743Z" fill="#FFB0B1"/>
<path opacity="0.1" d="M394.628 242.861L388.981 251.077L385.918 252.279C385.918 252.279 380.991 250.6 381.89 250.119C382.116 250.002 382.468 249.377 382.872 248.515C384.957 248.497 386.038 250.479 386.038 250.479L388.68 250.059C388.68 250.059 392.166 243.221 392.948 242.804C393.731 242.386 393.069 239.683 393.069 239.683V238.995C393.09 239.019 393.108 239.046 393.132 239.07V239.088C393.835 240.152 394.323 241.343 394.571 242.594L394.628 242.861Z" fill="black"/>
<path d="M386.218 250.657C386.218 250.657 384.714 247.899 381.83 248.917C381.83 248.917 380.208 252.222 378.586 252.757C376.963 253.291 377.505 255.094 381.171 254.436C384.837 253.778 390.363 253.234 390.363 253.234L390.604 249.873L394.33 245.135C394.33 245.135 396.551 243.125 393.246 239.169V239.857C393.246 239.857 393.908 242.561 393.126 242.978C392.343 243.396 388.87 250.236 388.87 250.236L386.218 250.657Z" fill="#1D2366"/>
<path opacity="0.1" d="M364.045 201.897C364.097 202.805 364.216 203.709 364.4 204.6C361.011 204.105 357.866 204.351 355.805 204.513V201.837L364.045 201.897Z" fill="black"/>
<path opacity="0.1" d="M394.751 205.973C394.751 205.973 389.936 206.208 384.193 206.256C384.03 204.754 383.994 203.516 383.994 203.516C383.994 203.516 387.239 199.01 393.186 203.876C393.662 204.265 394.08 204.718 394.429 205.222C394.522 205.478 394.63 205.729 394.751 205.973Z" fill="black"/>
<path d="M394.751 205.432C394.751 205.432 373.659 206.451 367.23 204.651C360.801 202.852 354.429 204.411 353.469 203.993C352.509 203.576 353.288 197.036 354.131 195.417C354.974 193.797 359.597 177.422 359.597 177.422L364.045 154.272L368.732 152.983L369.063 152.89L377.228 150.643L383.212 148.994C383.212 148.994 395.109 195.356 394.089 198.775C393.719 200.084 393.659 201.461 393.915 202.798C394.07 203.71 394.352 204.597 394.751 205.432Z" fill="#1D2366"/>
<path d="M348.539 138.44C348.539 138.44 344.325 142.946 347.516 145.458C350.706 147.969 352.804 145.698 352.804 145.698L348.539 138.44Z" fill="#C7DAF5"/>
<path opacity="0.1" d="M348.539 138.44C348.539 138.44 344.325 142.946 347.516 145.458C350.706 147.969 352.804 145.698 352.804 145.698L348.539 138.44Z" fill="black"/>
<path d="M382.583 108.814C382.583 108.814 382.089 109.282 381.346 109.973C380.286 110.962 378.718 112.407 377.328 113.617C375.401 115.29 373.812 116.519 374.381 115.471C374.95 114.422 374.842 112.596 374.559 110.886C374.538 110.772 374.519 110.658 374.498 110.547C374.264 109.292 373.954 108.052 373.568 106.834C373.568 106.834 376.68 102.82 378.402 101.237C379.043 100.636 379.492 100.39 379.519 100.808C379.549 101.369 379.97 102.61 380.494 103.926C380.509 103.968 380.524 104.007 380.542 104.049C380.891 104.95 381.285 105.876 381.632 106.675C382.161 107.9 382.583 108.814 382.583 108.814Z" fill="#FFB0B1"/>
<path opacity="0.1" d="M380.542 104.049C380.25 105.619 379.54 107.082 378.487 108.285C377.435 109.487 376.078 110.386 374.559 110.886C374.319 109.515 373.988 108.161 373.568 106.834C373.568 106.834 379.428 99.2784 379.519 100.807C379.54 101.387 379.997 102.673 380.542 104.049Z" fill="black"/>
<path opacity="0.1" d="M373.975 112.905L374.733 111.839C374.733 111.839 375.236 114.897 377.084 113.548C378.932 112.199 379.022 123.699 379.022 123.699L377.039 153.299L362.706 152.443L363.112 138.14L364.735 130.93L368.747 120.449L371.133 116.985L373.975 112.905Z" fill="black"/>
<path d="M379.022 123.882L377.216 150.646L377.027 153.482L369.036 153.004L368.735 152.986L362.715 152.626L363.121 138.32L364.744 131.11L368.756 120.629L371.142 117.165L373.984 113.07L374.742 112.007C374.742 112.007 375.245 115.065 377.093 113.716L377.132 113.689C378.938 112.548 379.022 123.882 379.022 123.882Z" fill="#1D2366"/>
<path d="M364.945 128.605C364.945 128.605 364.226 130.107 362.781 129.864C361.337 129.62 361.34 135.271 361.34 135.271C361.34 135.271 360.379 136.172 359.717 135.391C359.055 134.61 357.309 137.251 357.309 137.251L346.372 137.731C346.372 137.731 351.239 139.951 350.285 146.669C350.285 146.669 366.808 145.647 367.35 144.088C367.892 142.529 364.945 128.605 364.945 128.605Z" fill="white"/>
<path opacity="0.03" d="M364.945 128.605C364.945 128.605 364.226 130.107 362.781 129.864C361.337 129.62 361.34 135.271 361.34 135.271C361.34 135.271 360.379 136.172 359.717 135.391C359.055 134.61 357.309 137.251 357.309 137.251L346.372 137.731C346.372 137.731 351.239 139.951 350.285 146.669C350.285 146.669 366.808 145.647 367.35 144.088C367.892 142.529 364.945 128.605 364.945 128.605Z" fill="black"/>
<path d="M333.159 141.261L336.042 143.719L359.778 148.696L356.834 145.698L333.159 141.261Z" fill="white"/>
<path d="M374.02 113.851C373.625 114.452 372.497 117.529 371.555 120.214C370.769 122.452 370.113 124.42 370.113 124.42C370.113 124.42 368.581 134.376 367.799 136.175C367.016 137.975 367.44 144.992 367.44 144.992L364.524 162.323C364.524 162.323 363.203 171.26 361.162 176.599C359.148 181.853 356.906 184.316 356.837 184.395C357.74 183.175 362.661 159.16 362.661 159.16L364.286 128.872C364.286 128.872 364.524 125.994 364.765 123.534C365.005 121.073 369.881 117.715 369.881 117.715L374.583 111.043C375.055 111.673 374.739 112.773 374.02 113.851Z" fill="white"/>
<path d="M361.761 152.776C361.761 152.776 354.838 152.476 351.486 148.456C348.133 144.437 359.236 146.852 359.236 146.852L362.122 147.513L361.761 152.776Z" fill="#FFB0B1"/>
<path opacity="0.1" d="M394.089 198.778C393.719 200.087 393.659 201.465 393.914 202.801C386.363 203.335 378.285 201.299 378.285 201.299C376.78 202.681 372.816 204.717 372.816 204.717L370.655 177.981C369.273 174.376 368.732 155.489 368.732 155.489C368.732 155.489 368.855 154.5 369.033 153.019C369.033 152.983 369.033 152.944 369.048 152.908C369.586 148.771 370.655 141.006 371.179 139.957C371.901 138.515 368.957 134.679 368.957 134.679L370.297 123.278L370.459 121.902C373.282 120.644 375.446 116.624 375.446 116.624L377.108 113.719C378.914 112.563 379.007 123.897 379.007 123.897L377.201 150.661L383.185 149.012C383.185 149.012 395.109 195.36 394.089 198.778Z" fill="black"/>
<path d="M401.839 200.626C393.607 204.706 378.646 200.926 378.646 200.926C377.141 202.308 373.177 204.345 373.177 204.345L371.013 177.608C369.635 174.003 369.093 155.116 369.093 155.116C369.093 155.116 370.832 141.024 371.555 139.585C371.765 139.164 371.663 138.54 371.413 137.867C370.185 134.664 369.733 131.216 370.095 127.806L370.673 122.906L370.832 121.533C373.659 120.271 375.823 116.252 375.823 116.252L377.328 113.62L380.097 108.772L381.409 106.476L381.632 106.678L383.332 108.216C383.332 108.216 384.054 108.817 385.138 109.718C387.495 111.701 391.567 115.191 393.668 117.327C395.516 119.208 396.1 126.523 396.268 132.03C396.379 135.656 396.313 138.497 396.313 138.497C394.45 141.559 399.323 166.136 399.323 166.136C400.458 170.885 401.839 200.626 401.839 200.626Z" fill="white"/>
<path opacity="0.03" d="M386.038 116.192C386.038 116.192 380.389 126.926 381.045 131.005C381.701 135.085 383.567 139.702 382.667 140.781C382.358 141.189 381.958 141.521 381.499 141.75C381.04 141.978 380.534 142.098 380.021 142.099C379.118 142.16 376.711 143.839 376.711 144.019C376.711 144.199 374.486 144.199 372.497 145.04C370.507 145.882 367.57 146.359 367.57 146.359C367.57 146.359 361.851 146.179 361.319 146.72C360.786 147.261 360.238 150.496 361.379 153.077C362.519 155.657 363.787 157.583 364.744 157.934C365.701 158.286 371.775 156.255 376.702 155.774C381.629 155.294 386.977 151.397 386.977 151.397C386.977 151.397 392.867 149.294 393.899 145.758C394.932 142.223 392.638 122.789 392.638 122.789C392.638 122.789 390.905 113.731 386.038 116.192Z" fill="black"/>
<path opacity="0.03" d="M385.316 115.291C385.316 115.291 379.666 126.027 380.328 130.104C380.99 134.181 382.85 138.801 381.948 139.882C381.639 140.291 381.24 140.623 380.782 140.852C380.323 141.081 379.818 141.201 379.305 141.201C378.402 141.261 375.994 142.941 375.994 143.121C375.994 143.301 373.77 143.301 371.78 144.139C369.791 144.977 366.853 145.458 366.853 145.458C366.853 145.458 361.135 145.278 360.605 145.819C360.075 146.359 359.522 149.598 360.665 152.175C361.809 154.753 363.073 156.682 364.03 157.033C364.987 157.384 371.061 155.354 375.988 154.876C380.915 154.398 386.264 150.496 386.264 150.496C386.264 150.496 392.151 148.393 393.171 144.86C394.191 141.327 391.91 121.888 391.91 121.888C391.91 121.888 390.182 112.833 385.316 115.291Z" fill="black"/>
<path d="M385.86 115.651C385.86 115.651 380.211 126.388 380.873 130.464C381.535 134.541 383.395 139.161 382.495 140.24C382.187 140.65 381.788 140.983 381.329 141.212C380.869 141.442 380.363 141.561 379.85 141.562C378.947 141.622 376.539 143.301 376.539 143.478C376.539 143.656 374.318 143.659 372.325 144.5C370.333 145.341 367.398 145.818 367.398 145.818C367.398 145.818 361.68 145.638 361.147 146.179C360.614 146.72 360.066 149.958 361.207 152.536C362.348 155.113 363.615 157.042 364.572 157.393C365.529 157.745 371.603 155.714 376.53 155.233C381.457 154.753 386.805 150.856 386.805 150.856C386.805 150.856 392.695 148.754 393.728 145.218C394.76 141.682 392.482 122.248 392.482 122.248C392.482 122.248 390.724 113.206 385.86 115.651Z" fill="white"/>
<path opacity="0.1" d="M385.737 144.449C385.737 144.449 381.222 143.547 382.793 145.049C384.364 146.551 384.355 147.867 386.279 147.807C388.202 147.747 385.737 144.449 385.737 144.449Z" fill="black"/>
<path opacity="0.1" d="M393.367 176.767C393.367 176.767 391.326 178.146 395.23 181.324C399.133 184.503 393.367 176.767 393.367 176.767Z" fill="black"/>
<path opacity="0.1" d="M389.472 188.102C389.472 188.282 388.75 194.711 391.452 196.318C394.155 197.925 389.472 188.102 389.472 188.102Z" fill="black"/>
<path d="M346.559 137.716C344.379 137.791 339.672 138.455 342.113 143.001C344.271 147.023 347.898 144.334 349.938 142.295C349.441 140.393 348.231 138.754 346.559 137.716Z" fill="#FFB0B1"/>
<path d="M349.966 142.259L350.056 142.166L349.966 142.259Z" fill="#FFB0B1"/>
<path opacity="0.1" d="M385.138 109.901C382.826 111.478 380.888 112.809 380.509 113.085C379.474 113.851 377.499 118.349 376.226 120.644C375.212 122.491 371.916 122.966 370.673 123.083L370.833 121.71C373.659 120.448 375.823 116.429 375.823 116.429L381.409 106.653L383.332 108.399C383.332 108.399 384.054 109 385.138 109.901Z" fill="black"/>
<path d="M385.138 109.721C382.826 111.298 380.888 112.629 380.509 112.908C379.474 113.671 377.499 118.168 376.226 120.464C375.212 122.311 371.916 122.786 370.673 122.903L370.833 121.53C373.659 120.268 375.823 116.249 375.823 116.249L381.409 106.473L383.332 108.213C383.332 108.213 384.054 108.807 385.138 109.721Z" fill="#DCE7FF"/>
<path d="M380.689 102.066C380.691 103.87 380.143 105.631 379.118 107.116C377.908 108.873 376.108 110.138 374.043 110.682C371.979 111.227 369.787 111.015 367.866 110.084C365.944 109.154 364.421 107.567 363.572 105.611C362.722 103.656 362.604 101.461 363.237 99.4254C363.87 97.3899 365.214 95.6484 367.023 94.5168C368.833 93.3853 370.989 92.9388 373.101 93.2583C375.212 93.5778 377.139 94.6421 378.531 96.2581C379.923 97.8742 380.689 99.9349 380.689 102.066Z" fill="#FFB0B1"/>
<path opacity="0.1" d="M396.268 132.032C395.046 131.282 394.05 130.215 393.388 128.944C392.885 127.953 392.551 126.808 391.693 126.105C390.92 125.474 389.887 125.321 388.924 125.039C385.758 124.105 383.103 121.221 383.004 117.928C382.956 116.378 383.44 114.831 383.221 113.296C383.096 112.427 382.75 111.605 382.215 110.907C381.95 110.574 381.659 110.262 381.346 109.973C380.924 109.577 380.482 109.192 380.097 108.771C379.854 108.511 379.642 108.224 379.464 107.915C379.321 107.663 379.205 107.396 379.118 107.119C378.516 105.281 379.064 103.1 378.402 101.24L378.366 101.138C378.116 100.477 377.607 99.8161 376.9 99.7651C376.193 99.714 375.588 100.3 374.914 100.561C373.502 101.108 371.979 100.177 370.802 99.2273C369.625 98.278 368.298 97.1935 366.802 97.4038C365.812 97.545 365.03 98.2179 364.118 98.5664C363.912 98.646 363.699 98.7073 363.483 98.7497C364.254 96.8286 365.672 95.2357 367.493 94.2447C369.313 93.2537 371.423 92.9266 373.459 93.3193C375.495 93.7121 377.33 94.8004 378.65 96.3971C379.969 97.9939 380.691 99.9994 380.689 102.069C380.69 102.694 380.625 103.318 380.494 103.929C380.509 103.971 380.524 104.01 380.542 104.052C380.891 104.953 381.285 105.878 381.632 106.678L383.332 108.216C383.332 108.216 384.054 108.817 385.138 109.718C387.495 111.7 391.567 115.191 393.668 117.327C395.516 119.214 396.094 126.526 396.268 132.032Z" fill="black"/>
<path d="M364.012 93.0779C364.443 92.2037 364.656 91.2243 365.171 90.3952C365.927 89.1935 367.245 88.4245 368.599 87.9588C372.136 86.7422 379.609 84.9757 381.842 87.9588C382.282 88.5597 382.646 89.2266 383.254 89.6412C383.717 89.9566 384.277 90.0918 384.786 90.3291C386.209 90.996 387.118 92.45 387.603 93.9341C388.088 95.4181 388.232 97.0103 388.587 98.5394C389.042 100.501 389.839 102.361 390.634 104.208C391.57 106.389 392.563 108.651 394.369 110.192C396.834 112.295 397.379 115.272 399.666 117.58C402.375 120.319 402.288 124.841 400.891 128.431C400.708 128.902 400.5 129.395 400.572 129.897C400.644 130.398 401.018 130.855 401.37 131.254L402.85 132.922C399.347 133.766 395.383 131.939 393.752 128.734C393.249 127.743 392.915 126.601 392.054 125.895C391.284 125.264 390.249 125.114 389.288 124.832C386.122 123.894 383.468 121.007 383.368 117.715C383.32 116.168 383.805 114.621 383.585 113.088C383.463 112.214 383.115 111.386 382.577 110.685C381.749 109.607 380.5 108.883 379.826 107.681C378.685 105.671 379.552 103.061 378.73 100.904C378.477 100.243 377.972 99.5818 377.264 99.5308C376.557 99.4797 375.952 100.066 375.275 100.327C373.866 100.874 372.343 99.9453 371.167 98.993C369.99 98.0407 368.662 96.9592 367.164 97.1725C366.173 97.3107 365.394 97.9836 364.482 98.3351C363.808 98.5935 362.441 98.8248 361.851 98.257C360.605 97.1124 363.492 94.1474 364.012 93.0779Z" fill="#591D4B"/>
<path opacity="0.1" d="M394.589 127.743C394.083 126.751 393.752 125.61 392.891 124.907C392.121 124.276 391.085 124.123 390.122 123.84C386.959 122.906 384.304 120.019 384.202 116.727C384.154 115.179 384.638 113.629 384.422 112.097C384.296 111.228 383.948 110.406 383.413 109.709C382.583 108.63 381.334 107.906 380.662 106.705C379.522 104.698 380.389 102.087 379.564 99.9274C379.314 99.2695 378.805 98.6086 378.101 98.5545C377.397 98.5004 376.786 99.0923 376.112 99.3536C374.703 99.9004 373.177 98.9691 372.003 98.0198C370.829 97.0705 369.496 95.986 368 96.1963C367.01 96.3375 366.227 97.0104 365.319 97.3589C364.644 97.6172 363.275 97.8515 362.685 97.2838C361.445 96.0821 364.331 93.123 364.849 92.0596C365.279 91.1824 365.493 90.206 366.011 89.3769C366.038 89.3318 366.068 89.2868 366.098 89.2417C365.711 89.5619 365.377 89.9411 365.108 90.3652C364.593 91.1944 364.379 92.1677 363.949 93.0479C363.428 94.1114 360.542 97.0795 361.785 98.2721C362.387 98.8429 363.741 98.6086 364.416 98.3502C365.319 97.9987 366.107 97.3258 367.097 97.1876C368.602 96.9743 369.927 98.0588 371.1 99.0081C372.274 99.9574 373.809 100.889 375.212 100.342C375.886 100.081 376.476 99.4918 377.198 99.5459C377.92 99.5999 378.402 100.258 378.664 100.919C379.486 103.076 378.619 105.686 379.759 107.696C380.434 108.877 381.683 109.616 382.51 110.7C383.049 111.401 383.396 112.229 383.519 113.104C383.738 114.636 383.254 116.183 383.302 117.73C383.401 121.034 386.056 123.909 389.222 124.847C390.176 125.129 391.218 125.279 391.988 125.91C392.852 126.616 393.192 127.758 393.686 128.749C395.317 131.954 399.281 133.781 402.784 132.937L402.086 132.15C399.049 132.195 395.976 130.47 394.589 127.743Z" fill="black"/>
<path opacity="0.1" d="M373.839 114.032C373.445 114.633 372.316 117.709 371.374 120.395C370.492 120.052 369.692 117.868 369.692 117.868L374.393 111.193C374.875 111.854 374.559 112.95 373.839 114.032Z" fill="black"/>
<path d="M374.02 113.851C373.626 114.452 372.497 117.528 371.555 120.214C370.673 119.875 369.872 117.688 369.872 117.688L374.574 111.016C375.055 111.673 374.739 112.773 374.02 113.851Z" fill="#DCE7FF"/>
<path d="M346.685 144.542L344.078 136.337C344.048 136.241 344.036 136.14 344.044 136.04C344.053 135.939 344.081 135.841 344.128 135.752C344.174 135.662 344.238 135.582 344.315 135.518C344.392 135.453 344.482 135.403 344.578 135.373C344.772 135.313 344.982 135.331 345.162 135.425C345.343 135.518 345.479 135.679 345.541 135.872L348.148 144.067L347.889 145.782L346.685 144.542Z" fill="#BE8B87"/>
<path opacity="0.1" d="M344.325 135.616C344.52 135.555 344.731 135.573 344.912 135.667C345.093 135.76 345.229 135.921 345.292 136.115L347.898 144.31L347.702 145.596L347.892 145.795L348.151 144.079L345.529 135.884C345.467 135.691 345.331 135.53 345.151 135.437C344.97 135.343 344.76 135.325 344.566 135.385C344.403 135.438 344.262 135.544 344.166 135.686C344.217 135.658 344.27 135.635 344.325 135.616Z" fill="white"/>
<path d="M346.685 144.542L348.148 144.079L347.934 145.485L347.889 145.795L347.461 145.35L346.685 144.542Z" fill="#EFC8C4"/>
<path d="M347.461 145.35C347.487 145.318 347.519 145.291 347.555 145.272C347.576 145.258 347.601 145.251 347.626 145.251C347.651 145.251 347.675 145.258 347.696 145.272C347.717 145.296 347.734 145.324 347.747 145.353C347.767 145.386 347.794 145.414 347.827 145.436C347.859 145.457 347.896 145.471 347.934 145.476L347.889 145.776L347.461 145.35Z" fill="#727A9C"/>
<path d="M344.063 139.251C344.063 139.251 349.291 139.221 348.06 141.441C346.829 143.662 344.906 143.929 344.906 143.929L344.063 139.251Z" fill="#FFB0B1"/>
<path d="M311.549 39.6193H311.323C302.342 39.6193 294.399 44.3628 289.83 51.3624C285.261 44.3628 277.319 39.6193 268.337 39.6193H268.112C261.371 39.6834 254.929 42.3999 250.184 47.1785C245.439 51.9571 242.776 58.4116 242.772 65.1394C242.772 73.4939 246.438 85.3482 253.586 95.1026C267.206 113.689 289.83 129.951 289.83 129.951C289.83 129.951 312.455 113.692 326.071 95.1026C333.222 85.3482 336.885 73.4939 336.885 65.1394C336.881 58.4121 334.218 51.958 329.474 47.1795C324.73 42.401 318.288 39.6842 311.549 39.6193ZM308.319 96.5326C307.296 96.5287 306.299 96.2162 305.457 95.6361C304.615 95.056 303.969 94.2354 303.603 93.2821H298.233C297.88 93.2799 297.536 93.1675 297.249 92.9607C296.963 92.7539 296.748 92.463 296.635 92.1285L294.986 87.1687L289.767 105.371C289.665 105.721 289.453 106.029 289.161 106.249C288.869 106.468 288.513 106.587 288.148 106.587H288.042C287.661 106.569 287.298 106.421 287.013 106.167C286.728 105.913 286.539 105.57 286.477 105.193L281.099 72.9051L277.168 92.0113C277.078 92.3743 276.869 92.6967 276.573 92.927C276.278 93.1573 275.914 93.2823 275.54 93.2821H267.976C267.749 93.2917 267.523 93.2554 267.311 93.1754C267.098 93.0954 266.905 92.9733 266.741 92.8166C266.577 92.6598 266.447 92.4716 266.357 92.2633C266.268 92.055 266.223 91.8308 266.223 91.6043C266.223 91.3778 266.268 91.1536 266.357 90.9453C266.447 90.7369 266.577 90.5487 266.741 90.392C266.905 90.2352 267.098 90.1132 267.311 90.0332C267.523 89.9532 267.749 89.9169 267.976 89.9265H274.215L279.784 64.2381C279.875 63.8583 280.096 63.522 280.408 63.2867C280.72 63.0514 281.105 62.9316 281.496 62.9479C281.887 62.9642 282.26 63.1156 282.552 63.3762C282.843 63.6367 283.035 63.9902 283.094 64.3763L288.587 97.3136L293.264 81.0282C293.362 80.6852 293.568 80.3829 293.851 80.1663C294.135 79.9497 294.481 79.8306 294.838 79.8266H294.872C295.225 79.8267 295.57 79.9383 295.856 80.1454C296.143 80.3526 296.356 80.6447 296.467 80.9802L299.449 89.9355H303.537C303.827 89.0543 304.356 88.2703 305.065 87.6702C305.774 87.07 306.635 86.677 307.553 86.5345C308.472 86.392 309.412 86.5055 310.27 86.8626C311.128 87.2197 311.87 87.8064 312.415 88.558C312.96 89.3095 313.286 90.1968 313.358 91.1218C313.429 92.0467 313.243 92.9735 312.821 93.7997C312.398 94.6259 311.755 95.3195 310.962 95.8039C310.169 96.2882 309.258 96.5446 308.328 96.5446L308.319 96.5326Z" fill="#EC5863"/>
</g>
</g>
<defs>
<filter id="filter0_d_6_373" x="0.829773" y="0" width="529.17" height="292" filterUnits="userSpaceOnUse" color-interpolation-filters="sRGB">
<feFlood flood-opacity="0" result="BackgroundImageFix"/>
<feColorMatrix in="SourceAlpha" type="matrix" values="0 0 0 0 0 0 0 0 0 0 0 0 0 0 0 0 0 0 127 0" result="hardAlpha"/>
<feOffset dy="4"/>
<feGaussianBlur stdDeviation="2"/>
<feComposite in2="hardAlpha" operator="out"/>
<feColorMatrix type="matrix" values="0 0 0 0 0 0 0 0 0 0 0 0 0 0 0 0 0 0 0.25 0"/>
<feBlend mode="normal" in2="BackgroundImageFix" result="effect1_dropShadow_6_373"/>
<feBlend mode="normal" in="SourceGraphic" in2="effect1_dropShadow_6_373" result="shape"/>
</filter>
<linearGradient id="paint0_linear_6_373" x1="206.348" y1="256.953" x2="206.348" y2="72.0969" gradientUnits="userSpaceOnUse">
<stop stop-color="#808080" stop-opacity="0.25"/>
<stop offset="0.54" stop-color="#808080" stop-opacity="0.12"/>
<stop offset="1" stop-color="#808080" stop-opacity="0.1"/>
</linearGradient>
<linearGradient id="paint1_linear_6_373" x1="67282.1" y1="139501" x2="67282.1" y2="44612.4" gradientUnits="userSpaceOnUse">
<stop stop-color="#808080" stop-opacity="0.25"/>
<stop offset="0.54" stop-color="#808080" stop-opacity="0.12"/>
<stop offset="1" stop-color="#808080" stop-opacity="0.1"/>
</linearGradient>
</defs>
</svg>
